<svg width="147" height="136" viewBox="0 0 147 136" fill="none" xmlns="http://www.w3.org/2000/svg">
<path d="M71.6958 105.212C70.4869 105.212 69.6233 104.348 69.2779 103.312C67.0327 93.8128 63.0604 85.1775 57.5338 77.7511C56.6703 76.7148 57.0157 75.1605 58.0519 74.2969C59.0882 73.4334 60.6425 73.7788 61.5061 74.815C65.651 80.5144 68.9325 86.7318 71.5231 93.4674C77.7406 73.6061 92.7661 58.5805 112.8 52.1904C92.0753 44.7639 76.877 29.393 70.8323 9.70434C70.8323 9.87705 70.6596 10.0498 70.6596 10.2225C64.0967 30.2565 50.2801 44.5912 30.4187 52.1904C37.1543 54.4356 43.3718 57.5443 48.8984 61.862C49.9347 62.7255 50.1074 64.2799 49.4166 65.3161C48.553 66.3524 46.9986 66.5251 45.9624 65.8342C38.7087 60.3076 30.246 56.508 21.0925 54.9537C19.8836 54.781 19.1928 53.7447 19.0201 52.7085C18.8473 51.6722 19.7109 50.4633 20.9198 50.2906C43.7172 44.2458 59.2609 29.9111 66.1692 8.84081V8.6681C68.069 4.35041 69.2779 1.41439 69.2779 1.41439C69.6233 0.378143 70.6596 -0.139979 71.8685 0.0327281C72.9048 0.205436 73.7683 0.896265 73.941 1.93251C78.6041 26.1115 96.9111 44.2458 122.817 50.4633C124.026 50.8087 124.717 51.6722 124.717 52.8812C124.717 54.0901 123.853 54.9537 122.644 55.2991C97.4292 59.9622 78.7768 78.4419 74.2864 103.657C73.7683 104.348 72.9048 105.212 71.6958 105.212Z" fill="#002864"/>
<path d="M118.499 135.436C117.29 135.436 116.427 134.572 116.082 133.536C115.045 128.873 113.145 124.728 110.382 121.274C109.519 120.238 109.864 118.683 110.9 117.82C111.937 116.956 113.491 117.301 114.354 118.338C115.909 120.41 117.118 122.655 118.327 124.901C121.608 117.129 127.826 110.911 135.597 107.63C127.48 104.003 121.435 97.7855 117.981 90.0137C114.7 97.9583 109.001 104.003 101.056 107.63C103.474 108.666 105.719 110.048 107.792 111.602C108.828 112.466 109.001 114.02 108.31 115.056C107.446 116.093 105.892 116.265 104.856 115.574C101.401 112.984 97.4291 111.084 92.9387 110.393C91.7298 110.22 91.039 109.184 90.8662 108.148C90.6935 107.112 91.5571 105.903 92.766 105.73C103.647 102.794 111.246 96.0585 114.527 85.8687V85.696C115.391 83.4508 116.082 82.0692 116.082 82.0692C116.427 81.0329 117.463 80.5148 118.672 80.6875C119.708 80.8602 120.572 81.5511 120.745 82.5873C122.99 94.1587 131.798 102.794 144.233 105.73C145.442 106.076 146.133 106.939 146.133 108.148C146.133 109.357 145.269 110.22 144.06 110.566C131.971 112.811 123.163 121.619 120.917 133.709C120.745 134.572 119.708 135.436 118.499 135.436Z" fill="#002864"/>
<path d="M20.2288 107.284C19.0198 107.284 18.1563 106.42 17.8109 105.384C17.12 102.275 15.7384 99.3394 14.0113 96.9215C13.1478 95.8853 13.4932 94.3309 14.5294 93.4674C15.5657 92.6038 17.12 92.9492 17.9836 93.9855C18.8471 95.0217 19.5379 96.2307 20.0561 97.4396C22.3013 92.9492 25.9281 89.1497 30.5912 86.9045C25.9281 84.4866 22.1286 80.687 19.8834 76.1966C17.6382 80.8597 14.184 84.4866 9.69362 86.9045C10.9026 87.5953 12.1115 88.2861 13.1478 89.1497C14.184 90.0132 14.3567 91.5676 13.6659 92.6038C12.8024 93.6401 11.248 93.8128 10.2117 93.1219C7.79384 91.3949 5.20323 90.1859 2.09449 89.4951C0.885542 89.3224 0.194713 88.2861 0.0220058 87.2499C-0.150702 86.2137 0.712836 85.0047 1.92179 84.832C9.34821 82.9322 14.5294 78.2691 16.7746 71.3608V71.1881C17.4655 69.6337 17.8109 68.5975 17.8109 68.5975C18.1563 67.5612 19.1925 67.0431 20.4015 67.2158C21.4377 67.3885 22.3013 68.0794 22.474 69.1156C24.0283 76.8875 29.9004 82.9322 38.363 84.832C39.572 85.1774 40.2628 86.0409 40.2628 87.2499C40.2628 88.4588 39.3993 89.3224 38.1903 89.6678C29.9004 91.2222 24.0283 97.2669 22.474 105.384C22.3013 106.42 21.4377 107.284 20.2288 107.284Z" fill="#002864"/>
</svg>
