<svg width="1007" height="1353" viewBox="0 0 1007 1353" fill="none" xmlns="http://www.w3.org/2000/svg">
<path d="M509 443C530.167 682 580.4 1176.2 612 1241C643.6 1305.8 679.167 1340 693 1349" stroke="#C0C0C0" stroke-opacity="0.7" stroke-width="8"/>
<path d="M505.87 234.605C503.175 234.605 501.249 232.679 500.479 230.369C495.472 209.188 486.615 189.932 474.291 173.372C472.366 171.062 473.136 167.596 475.447 165.67C477.757 163.745 481.223 164.515 483.149 166.825C492.391 179.534 499.709 193.398 505.485 208.417C519.349 164.13 552.854 130.625 597.526 116.376C551.313 99.8164 517.424 65.5416 503.945 21.6391C503.945 22.0242 503.56 22.4093 503.56 22.7945C488.925 67.4672 458.117 99.4313 413.829 116.376C428.848 121.383 442.712 128.315 455.036 137.942C457.346 139.868 457.732 143.334 456.191 145.644C454.266 147.955 450.8 148.34 448.489 146.8C432.314 134.476 413.444 126.004 393.033 122.538C390.337 122.153 388.797 119.842 388.412 117.531C388.027 115.221 389.952 112.525 392.648 112.14C443.483 98.6611 478.142 66.697 493.547 19.7136V19.3285C497.783 9.70072 500.479 3.15386 500.479 3.15386C501.249 0.843198 503.56 -0.312131 506.255 0.0729785C508.566 0.458088 510.492 1.99853 510.877 4.30918C521.275 58.2245 562.096 98.6611 619.863 112.525C622.559 113.295 624.099 115.221 624.099 117.917C624.099 120.612 622.173 122.538 619.478 123.308C563.252 133.706 521.66 174.913 511.647 231.139C510.492 232.679 508.566 234.605 505.87 234.605Z" fill="#FBECB7"/>
<path d="M610.235 302C607.539 302 605.613 300.074 604.843 297.764C602.532 287.366 598.296 278.123 592.134 270.421C590.209 268.11 590.979 264.644 593.29 262.719C595.6 260.793 599.066 261.563 600.992 263.874C604.458 268.495 607.154 273.502 609.849 278.508C617.166 261.178 631.03 247.314 648.36 239.997C630.26 231.91 616.781 218.046 609.079 200.716C601.762 218.431 589.053 231.91 571.338 239.997C576.73 242.308 581.736 245.389 586.358 248.855C588.668 250.78 589.053 254.246 587.513 256.557C585.587 258.868 582.121 259.253 579.811 257.712C572.109 251.936 563.251 247.699 553.238 246.159C550.542 245.774 549.002 243.463 548.617 241.153C548.232 238.842 550.157 236.146 552.853 235.761C577.115 229.214 594.06 214.195 601.377 191.473V191.088C603.303 186.082 604.843 183.001 604.843 183.001C605.613 180.69 607.924 179.535 610.62 179.92C612.93 180.305 614.856 181.846 615.241 184.156C620.247 209.959 639.888 229.214 667.616 235.761C670.312 236.531 671.852 238.457 671.852 241.153C671.852 243.848 669.927 245.774 667.231 246.544C640.273 251.551 620.632 271.191 615.626 298.149C615.241 300.074 612.93 302 610.235 302Z" fill="#FBECB7"/>
<path d="M391.107 239.226C388.411 239.226 386.486 237.301 385.715 234.99C384.175 228.058 381.094 221.511 377.243 216.119C375.317 213.809 376.088 210.343 378.398 208.417C380.709 206.492 384.175 207.262 386.1 209.573C388.026 211.883 389.566 214.579 390.722 217.275C395.728 207.262 403.816 198.79 414.213 193.783C403.816 188.392 395.343 179.919 390.337 169.906C385.33 180.304 377.628 188.392 367.615 193.783C370.311 195.324 373.007 196.864 375.317 198.79C377.628 200.715 378.013 204.181 376.473 206.492C374.547 208.802 371.081 209.188 368.771 207.647C363.379 203.796 357.602 201.1 350.67 199.56C347.975 199.175 346.434 196.864 346.049 194.553C345.664 192.243 347.59 189.547 350.285 189.162C366.845 184.926 378.398 174.528 383.405 159.123V158.738C384.945 155.272 385.715 152.961 385.715 152.961C386.486 150.651 388.796 149.495 391.492 149.881C393.803 150.266 395.728 151.806 396.113 154.117C399.579 171.447 412.673 184.926 431.543 189.162C434.239 189.932 435.78 191.858 435.78 194.553C435.78 197.249 433.854 199.175 431.158 199.945C412.673 203.411 399.579 216.89 396.113 234.99C395.728 237.301 393.803 239.226 391.107 239.226Z" fill="#FBECB7"/>
<path d="M450 439C432 588.5 364.8 930.3 240 1101.5C115.2 1272.7 29 1337.5 1.5 1348.5" stroke="#C0C0C0" stroke-opacity="0.7" stroke-width="8"/>
<path d="M557 439C575 588.5 642.2 930.3 767 1101.5C891.8 1272.7 978 1337.5 1005.5 1348.5" stroke="#C0C0C0" stroke-opacity="0.7" stroke-width="8"/>
<path d="M485.5 443.5C464.333 682.5 414.1 1176.7 382.5 1241.5C350.9 1306.3 315.333 1340.5 301.5 1349.5" stroke="#C0C0C0" stroke-opacity="0.7" stroke-width="8"/>
</svg>
