<svg width="326" height="302" viewBox="0 0 326 302" fill="none" xmlns="http://www.w3.org/2000/svg">
<path d="M159.87 234.605C157.175 234.605 155.249 232.679 154.479 230.369C149.472 209.188 140.615 189.932 128.291 173.372C126.366 171.062 127.136 167.596 129.447 165.67C131.757 163.745 135.223 164.515 137.149 166.825C146.391 179.534 153.709 193.398 159.485 208.417C173.349 164.13 206.854 130.625 251.526 116.376C205.313 99.8164 171.424 65.5416 157.945 21.6391C157.945 22.0242 157.56 22.4093 157.56 22.7945C142.925 67.4672 112.117 99.4313 67.8291 116.376C82.8484 121.383 96.7123 128.315 109.036 137.942C111.346 139.868 111.732 143.334 110.191 145.644C108.266 147.955 104.8 148.34 102.489 146.8C86.3144 134.476 67.444 126.004 47.0332 122.538C44.3374 122.153 42.797 119.842 42.4119 117.531C42.0268 115.221 43.9523 112.525 46.6481 112.14C97.4825 98.6611 132.142 66.697 147.547 19.7136V19.3285C151.783 9.70072 154.479 3.15386 154.479 3.15386C155.249 0.843198 157.56 -0.312131 160.255 0.0729785C162.566 0.458088 164.492 1.99853 164.877 4.30918C175.275 58.2245 216.096 98.6611 273.863 112.525C276.559 113.295 278.099 115.221 278.099 117.917C278.099 120.612 276.173 122.538 273.478 123.308C217.252 133.706 175.66 174.913 165.647 231.139C164.492 232.679 162.566 234.605 159.87 234.605Z" fill="#FBECB7"/>
<path d="M264.235 302C261.539 302 259.613 300.074 258.843 297.764C256.532 287.366 252.296 278.123 246.134 270.421C244.209 268.11 244.979 264.644 247.29 262.719C249.6 260.793 253.066 261.563 254.992 263.874C258.458 268.495 261.154 273.502 263.849 278.508C271.166 261.178 285.03 247.314 302.36 239.997C284.26 231.91 270.781 218.046 263.079 200.716C255.762 218.431 243.053 231.91 225.338 239.997C230.73 242.308 235.736 245.389 240.358 248.855C242.668 250.78 243.053 254.246 241.513 256.557C239.587 258.868 236.121 259.253 233.811 257.712C226.109 251.936 217.251 247.699 207.238 246.159C204.542 245.774 203.002 243.463 202.617 241.153C202.232 238.842 204.157 236.146 206.853 235.761C231.115 229.214 248.06 214.195 255.377 191.473V191.088C257.303 186.082 258.843 183.001 258.843 183.001C259.613 180.69 261.924 179.535 264.62 179.92C266.93 180.305 268.856 181.846 269.241 184.156C274.247 209.959 293.888 229.214 321.616 235.761C324.312 236.531 325.852 238.457 325.852 241.153C325.852 243.848 323.927 245.774 321.231 246.544C294.273 251.551 274.632 271.191 269.626 298.149C269.241 300.074 266.93 302 264.235 302Z" fill="#FBECB7"/>
<path d="M45.1069 239.226C42.4111 239.226 40.4856 237.301 39.7154 234.99C38.1749 228.058 35.0941 221.511 31.243 216.119C29.3174 213.809 30.0876 210.343 32.3983 208.417C34.7089 206.492 38.1749 207.262 40.1005 209.573C42.026 211.883 43.5665 214.579 44.7218 217.275C49.7282 207.262 57.8155 198.79 68.2135 193.783C57.8155 188.392 49.3431 179.919 44.3367 169.906C39.3303 180.304 31.6281 188.392 21.6152 193.783C24.311 195.324 27.0068 196.864 29.3174 198.79C31.6281 200.715 32.0132 204.181 30.4727 206.492C28.5472 208.802 25.0812 209.188 22.7705 207.647C17.379 203.796 11.6024 201.1 4.67039 199.56C1.97462 199.175 0.434179 196.864 0.0490695 194.553C-0.33604 192.243 1.58951 189.547 4.28528 189.162C20.845 184.926 32.3983 174.528 37.4047 159.123V158.738C38.9452 155.272 39.7154 152.961 39.7154 152.961C40.4856 150.651 42.7963 149.495 45.492 149.881C47.8027 150.266 49.7282 151.806 50.1133 154.117C53.5793 171.447 66.6731 184.926 85.5434 189.162C88.2392 189.932 89.7796 191.858 89.7796 194.553C89.7796 197.249 87.8541 199.175 85.1583 199.945C66.6731 203.411 53.5793 216.89 50.1133 234.99C49.7282 237.301 47.8027 239.226 45.1069 239.226Z" fill="#FBECB7"/>
</svg>
